<svg xmlns="http://www.w3.org/2000/svg"  viewBox="0 0 333333 333333" shape-rendering="geometricPrecision" text-rendering="geometricPrecision" image-rendering="optimizeQuality" fill-rule="evenodd" clip-rule="evenodd"><path d="M166667 0c92048 0 166667 74619 166667 166667s-74619 166667-166667 166667S0 258715 0 166667 74619 0 166667 0zm-40062 259007c10251-9143 17289-22164 20724-35518 1385-5264 7037-26819 7037-26819 3657 7038 14462 12967 25822 12967 34022 0 58513-31252 58513-70206 0-37291-30420-65163-69541-65163-48706 0-74527 32692-74527 68266 0 16513 8810 37126 22884 43664 2106 1052 3269 554 3768-1552 333-1607 2272-9198 3158-12800 278-1108 167-2161-776-3269-4654-5652-8422-16069-8422-25711 0-24880 18840-48983 50922-48983 27706 0 47099 18840 47099 45880 0 30531-15404 51698-35463 51698-11082 0-19393-9143-16679-20391 3214-13410 9364-27872 9364-37513 0-8644-4599-15848-14296-15848-11359 0-20391 11692-20391 27428 0 9974 3324 16734 3324 16734s-11193 47265-13243 56076c-2272 9752-1385 23439-388 32360l997 8755 111-56v-1z" fill="#7e7e9f"/></svg>