<svg id="Layer_1" data-name="Layer 1" xmlns="http://www.w3.org/2000/svg" viewBox="0 0 122.88 122.88"><defs><style>.cls-1{fill:#7e7e9f;}.cls-1,.cls-2{fill-rule:evenodd;}.cls-2{fill:#4b4662;}</style></defs><title>tumblr-square-color</title><path class="cls-1" d="M25.2,0H97.68a25.27,25.27,0,0,1,25.2,25.2V97.68a25.27,25.27,0,0,1-25.2,25.2H25.2A25.27,25.27,0,0,1,0,97.68V25.2A25.27,25.27,0,0,1,25.2,0Z"/><path class="cls-2" d="M65.71,57.16V72.82c0,4,0,6.25.37,7.38a6.35,6.35,0,0,0,2.61,3,9.85,9.85,0,0,0,5.19,1.36,13.8,13.8,0,0,0,8.94-2.71V92.1A38.62,38.62,0,0,1,75,94.83a34,34,0,0,1-7.69.83,20.93,20.93,0,0,1-7.38-1.18,17.82,17.82,0,0,1-6.15-3.38,12.2,12.2,0,0,1-3.53-4.67,20,20,0,0,1-1-7.16v-24H40.06V45.57a23.79,23.79,0,0,0,7.6-3.75,18.73,18.73,0,0,0,4.62-5.88,26.1,26.1,0,0,0,2.4-8.72h11V44.33H82.82V57.17Z"/></svg>